<?xml version="1.0" standalone="no"?><svg xmlns="http://www.w3.org/2000/svg" viewBox="0 0 1440 320" data--h-bstatus="0OBSERVED"><path fill="#024D94" fill-opacity="1" d="M0,224L6.5,192C13,160,26,96,39,80C51.9,64,65,96,78,112C90.8,128,104,128,117,138.7C129.7,149,143,171,156,149.3C168.6,128,182,64,195,42.7C207.6,21,221,43,234,90.7C246.5,139,259,213,272,213.3C285.4,213,298,139,311,117.3C324.3,96,337,128,350,160C363.2,192,376,224,389,250.7C402.2,277,415,299,428,266.7C441.1,235,454,149,467,138.7C480,128,493,192,506,197.3C518.9,203,532,149,545,149.3C557.8,149,571,203,584,213.3C596.8,224,610,192,623,165.3C635.7,139,649,117,662,96C674.6,75,688,53,701,64C713.5,75,726,117,739,165.3C752.4,213,765,267,778,266.7C791.4,267,804,213,817,176C830.3,139,843,117,856,90.7C869.2,64,882,32,895,42.7C908.1,53,921,107,934,128C947,149,960,139,973,165.3C985.9,192,999,256,1012,250.7C1024.9,245,1038,171,1051,154.7C1063.8,139,1077,181,1090,213.3C1102.7,245,1116,267,1129,234.7C1141.6,203,1155,117,1168,122.7C1180.5,128,1194,224,1206,224C1219.5,224,1232,128,1245,80C1258.4,32,1271,32,1284,53.3C1297.3,75,1310,117,1323,149.3C1336.2,181,1349,203,1362,186.7C1375.1,171,1388,117,1401,106.7C1414.1,96,1427,128,1434,144L1440,160L1440,0L1433.5,0C1427,0,1414,0,1401,0C1388.1,0,1375,0,1362,0C1349.2,0,1336,0,1323,0C1310.3,0,1297,0,1284,0C1271.4,0,1258,0,1245,0C1232.4,0,1219,0,1206,0C1193.5,0,1181,0,1168,0C1154.6,0,1142,0,1129,0C1115.7,0,1103,0,1090,0C1076.8,0,1064,0,1051,0C1037.8,0,1025,0,1012,0C998.9,0,986,0,973,0C960,0,947,0,934,0C921.1,0,908,0,895,0C882.2,0,869,0,856,0C843.2,0,830,0,817,0C804.3,0,791,0,778,0C765.4,0,752,0,739,0C726.5,0,714,0,701,0C687.6,0,675,0,662,0C648.6,0,636,0,623,0C609.7,0,597,0,584,0C570.8,0,558,0,545,0C531.9,0,519,0,506,0C493,0,480,0,467,0C454.1,0,441,0,428,0C415.1,0,402,0,389,0C376.2,0,363,0,350,0C337.3,0,324,0,311,0C298.4,0,285,0,272,0C259.5,0,246,0,234,0C220.5,0,208,0,195,0C181.6,0,169,0,156,0C142.7,0,130,0,117,0C103.8,0,91,0,78,0C64.9,0,52,0,39,0C25.9,0,13,0,6,0L0,0Z" data--h-bstatus="0OBSERVED"></path></svg>